<mxfile host="app.diagrams.net" modified="2023-03-25T07:44:13.170Z" agent="5.0 (Windows NT 10.0; Win64; x64) AppleWebKit/537.36 (KHTML, like Gecko) Chrome/111.0.0.0 Safari/537.36" etag="JfmV7uNwbVPQQcFocs4d" version="21.0.8" type="github">
  <diagram name="第1頁" id="mBwmzWAm_jQV8ARpH_K5">
    <mxGraphModel dx="893" dy="499" grid="1" gridSize="10" guides="1" tooltips="1" connect="1" arrows="1" fold="1" page="1" pageScale="1" pageWidth="850" pageHeight="1100" math="0" shadow="0">
      <root>
        <mxCell id="0" />
        <mxCell id="1" parent="0" />
        <mxCell id="OUYbvoZZh8LId9jWtcb5-1" value="company" style="rounded=0;whiteSpace=wrap;html=1;" vertex="1" parent="1">
          <mxGeometry x="360" y="440" width="70" height="40" as="geometry" />
        </mxCell>
        <mxCell id="OUYbvoZZh8LId9jWtcb5-2" value="&lt;u&gt;ID&lt;/u&gt;" style="ellipse;whiteSpace=wrap;html=1;" vertex="1" parent="1">
          <mxGeometry x="310" y="350" width="50" height="30" as="geometry" />
        </mxCell>
        <mxCell id="OUYbvoZZh8LId9jWtcb5-3" value="" style="endArrow=none;html=1;rounded=0;entryX=0.5;entryY=1;entryDx=0;entryDy=0;" edge="1" parent="1" target="OUYbvoZZh8LId9jWtcb5-2">
          <mxGeometry width="50" height="50" relative="1" as="geometry">
            <mxPoint x="380" y="440" as="sourcePoint" />
            <mxPoint x="470" y="450" as="targetPoint" />
          </mxGeometry>
        </mxCell>
        <mxCell id="OUYbvoZZh8LId9jWtcb5-4" value="" style="endArrow=none;html=1;rounded=0;entryX=1;entryY=0.5;entryDx=0;entryDy=0;exitX=0;exitY=0.5;exitDx=0;exitDy=0;" edge="1" parent="1" source="OUYbvoZZh8LId9jWtcb5-5" target="OUYbvoZZh8LId9jWtcb5-1">
          <mxGeometry width="50" height="50" relative="1" as="geometry">
            <mxPoint x="500" y="460" as="sourcePoint" />
            <mxPoint x="345" y="390" as="targetPoint" />
          </mxGeometry>
        </mxCell>
        <mxCell id="OUYbvoZZh8LId9jWtcb5-5" value="own" style="rhombus;whiteSpace=wrap;html=1;" vertex="1" parent="1">
          <mxGeometry x="460" y="420" width="80" height="80" as="geometry" />
        </mxCell>
        <mxCell id="OUYbvoZZh8LId9jWtcb5-7" value="" style="endArrow=none;html=1;rounded=0;entryX=1;entryY=0.5;entryDx=0;entryDy=0;exitX=0;exitY=0.5;exitDx=0;exitDy=0;" edge="1" parent="1" source="OUYbvoZZh8LId9jWtcb5-8" target="OUYbvoZZh8LId9jWtcb5-5">
          <mxGeometry width="50" height="50" relative="1" as="geometry">
            <mxPoint x="620" y="460" as="sourcePoint" />
            <mxPoint x="470" y="450" as="targetPoint" />
          </mxGeometry>
        </mxCell>
        <mxCell id="OUYbvoZZh8LId9jWtcb5-8" value="aircraft" style="rounded=0;whiteSpace=wrap;html=1;" vertex="1" parent="1">
          <mxGeometry x="570" y="440" width="70" height="40" as="geometry" />
        </mxCell>
        <mxCell id="OUYbvoZZh8LId9jWtcb5-9" value="&lt;u&gt;REG_NUM&lt;/u&gt;" style="ellipse;whiteSpace=wrap;html=1;" vertex="1" parent="1">
          <mxGeometry x="490" y="340" width="80" height="30" as="geometry" />
        </mxCell>
        <mxCell id="OUYbvoZZh8LId9jWtcb5-10" value="" style="endArrow=none;html=1;rounded=0;entryX=0.5;entryY=1;entryDx=0;entryDy=0;exitX=0.25;exitY=0;exitDx=0;exitDy=0;" edge="1" parent="1" source="OUYbvoZZh8LId9jWtcb5-8" target="OUYbvoZZh8LId9jWtcb5-9">
          <mxGeometry width="50" height="50" relative="1" as="geometry">
            <mxPoint x="420" y="500" as="sourcePoint" />
            <mxPoint x="470" y="450" as="targetPoint" />
          </mxGeometry>
        </mxCell>
        <mxCell id="OUYbvoZZh8LId9jWtcb5-11" value="max_cap" style="ellipse;whiteSpace=wrap;html=1;" vertex="1" parent="1">
          <mxGeometry x="710" y="320" width="80" height="30" as="geometry" />
        </mxCell>
        <mxCell id="OUYbvoZZh8LId9jWtcb5-12" value="make" style="ellipse;whiteSpace=wrap;html=1;" vertex="1" parent="1">
          <mxGeometry x="635" y="290" width="80" height="30" as="geometry" />
        </mxCell>
        <mxCell id="OUYbvoZZh8LId9jWtcb5-13" value="" style="endArrow=none;html=1;rounded=0;entryX=0.5;entryY=1;entryDx=0;entryDy=0;exitX=0.75;exitY=0;exitDx=0;exitDy=0;" edge="1" parent="1" source="OUYbvoZZh8LId9jWtcb5-8" target="OUYbvoZZh8LId9jWtcb5-11">
          <mxGeometry width="50" height="50" relative="1" as="geometry">
            <mxPoint x="420" y="500" as="sourcePoint" />
            <mxPoint x="470" y="450" as="targetPoint" />
          </mxGeometry>
        </mxCell>
        <mxCell id="OUYbvoZZh8LId9jWtcb5-14" value="model" style="ellipse;whiteSpace=wrap;html=1;" vertex="1" parent="1">
          <mxGeometry x="540" y="300" width="80" height="30" as="geometry" />
        </mxCell>
        <mxCell id="OUYbvoZZh8LId9jWtcb5-15" value="" style="endArrow=none;html=1;rounded=0;entryX=0.436;entryY=-0.041;entryDx=0;entryDy=0;entryPerimeter=0;exitX=0.438;exitY=1.012;exitDx=0;exitDy=0;exitPerimeter=0;" edge="1" parent="1" source="OUYbvoZZh8LId9jWtcb5-14" target="OUYbvoZZh8LId9jWtcb5-8">
          <mxGeometry width="50" height="50" relative="1" as="geometry">
            <mxPoint x="420" y="500" as="sourcePoint" />
            <mxPoint x="470" y="450" as="targetPoint" />
          </mxGeometry>
        </mxCell>
        <mxCell id="OUYbvoZZh8LId9jWtcb5-16" value="" style="endArrow=none;html=1;rounded=0;exitX=0.599;exitY=0.039;exitDx=0;exitDy=0;exitPerimeter=0;entryX=0.5;entryY=1;entryDx=0;entryDy=0;" edge="1" parent="1" source="OUYbvoZZh8LId9jWtcb5-8" target="OUYbvoZZh8LId9jWtcb5-12">
          <mxGeometry width="50" height="50" relative="1" as="geometry">
            <mxPoint x="420" y="500" as="sourcePoint" />
            <mxPoint x="470" y="450" as="targetPoint" />
          </mxGeometry>
        </mxCell>
        <mxCell id="OUYbvoZZh8LId9jWtcb5-17" value="" style="endArrow=none;html=1;rounded=0;entryX=0.5;entryY=1;entryDx=0;entryDy=0;exitX=0.5;exitY=0;exitDx=0;exitDy=0;" edge="1" parent="1" source="OUYbvoZZh8LId9jWtcb5-18" target="OUYbvoZZh8LId9jWtcb5-5">
          <mxGeometry width="50" height="50" relative="1" as="geometry">
            <mxPoint x="500" y="560" as="sourcePoint" />
            <mxPoint x="470" y="450" as="targetPoint" />
          </mxGeometry>
        </mxCell>
        <mxCell id="OUYbvoZZh8LId9jWtcb5-18" value="flight" style="rounded=0;whiteSpace=wrap;html=1;" vertex="1" parent="1">
          <mxGeometry x="470" y="560" width="60" height="30" as="geometry" />
        </mxCell>
        <mxCell id="OUYbvoZZh8LId9jWtcb5-19" value="ISA" style="triangle;whiteSpace=wrap;html=1;flipV=1;flipH=1;direction=south;" vertex="1" parent="1">
          <mxGeometry x="460" y="620" width="80" height="60" as="geometry" />
        </mxCell>
        <mxCell id="OUYbvoZZh8LId9jWtcb5-20" value="" style="endArrow=none;html=1;rounded=0;entryX=0.5;entryY=1;entryDx=0;entryDy=0;exitX=0;exitY=0.5;exitDx=0;exitDy=0;" edge="1" parent="1" source="OUYbvoZZh8LId9jWtcb5-19" target="OUYbvoZZh8LId9jWtcb5-18">
          <mxGeometry width="50" height="50" relative="1" as="geometry">
            <mxPoint x="420" y="500" as="sourcePoint" />
            <mxPoint x="470" y="450" as="targetPoint" />
          </mxGeometry>
        </mxCell>
        <mxCell id="OUYbvoZZh8LId9jWtcb5-21" value="" style="endArrow=none;html=1;rounded=0;exitX=0.5;exitY=0;exitDx=0;exitDy=0;" edge="1" parent="1" source="OUYbvoZZh8LId9jWtcb5-23">
          <mxGeometry width="50" height="50" relative="1" as="geometry">
            <mxPoint x="430" y="730" as="sourcePoint" />
            <mxPoint x="460" y="680" as="targetPoint" />
          </mxGeometry>
        </mxCell>
        <mxCell id="OUYbvoZZh8LId9jWtcb5-22" value="" style="endArrow=none;html=1;rounded=0;entryX=-0.003;entryY=0.996;entryDx=0;entryDy=0;entryPerimeter=0;exitX=0.5;exitY=0;exitDx=0;exitDy=0;" edge="1" parent="1" source="OUYbvoZZh8LId9jWtcb5-24" target="OUYbvoZZh8LId9jWtcb5-19">
          <mxGeometry width="50" height="50" relative="1" as="geometry">
            <mxPoint x="570" y="730" as="sourcePoint" />
            <mxPoint x="470" y="690" as="targetPoint" />
          </mxGeometry>
        </mxCell>
        <mxCell id="OUYbvoZZh8LId9jWtcb5-23" value=" domestic&amp;nbsp;routes" style="rounded=0;whiteSpace=wrap;html=1;" vertex="1" parent="1">
          <mxGeometry x="375" y="730" width="100" height="30" as="geometry" />
        </mxCell>
        <mxCell id="OUYbvoZZh8LId9jWtcb5-24" value="international routes" style="rounded=0;whiteSpace=wrap;html=1;" vertex="1" parent="1">
          <mxGeometry x="525" y="730" width="110" height="30" as="geometry" />
        </mxCell>
        <mxCell id="OUYbvoZZh8LId9jWtcb5-25" value="airport" style="rounded=0;whiteSpace=wrap;html=1;" vertex="1" parent="1">
          <mxGeometry x="120" y="440" width="70" height="40" as="geometry" />
        </mxCell>
      </root>
    </mxGraphModel>
  </diagram>
</mxfile>
